<?xml version="1.0" standalone="no"?>
<!DOCTYPE svg PUBLIC "-//W3C//DTD SVG 20010904//EN"
 "http://www.w3.org/TR/2001/REC-SVG-20010904/DTD/svg10.dtd">
<svg version="1.0" xmlns="http://www.w3.org/2000/svg"
 width="16.000000pt" height="16.000000pt" viewBox="0 0 16.000000 16.000000"
 preserveAspectRatio="xMidYMid meet">
<metadata>
Created by potrace 1.11, written by Peter Selinger 2001-2013
</metadata>
<g transform="translate(0.000000,16.000000) scale(0.012214,-0.012214)"
fill="#000000" stroke="none">
<path d="M700 1249 c-25 -4 -91 -8 -147 -8 -80 -1 -103 -4 -103 -15 0 -7 13
-16 30 -19 55 -11 65 -43 68 -215 4 -147 3 -154 -15 -147 -159 68 -401 30
-470 -74 -66 -98 12 -212 125 -182 58 16 77 43 77 108 0 52 -2 57 -39 89 l-39
34 36 15 c46 19 78 19 123 0 49 -20 64 -62 64 -176 0 -88 -1 -92 -29 -118 -16
-15 -79 -46 -140 -70 -170 -65 -231 -120 -239 -215 -6 -75 22 -133 81 -166 84
-48 220 -25 294 48 35 36 43 39 43 17 0 -8 8 -30 18 -48 16 -32 22 -35 74 -41
31 -3 83 -1 115 5 31 6 97 9 145 7 78 -3 88 -1 88 15 0 11 -8 17 -25 17 -14 0
-34 9 -45 20 -18 18 -20 33 -20 180 0 139 2 160 16 160 25 0 52 -37 135 -190
59 -109 76 -147 67 -157 -6 -7 -17 -13 -24 -13 -8 0 -14 -8 -14 -17 0 -17 15
-18 180 -18 196 0 207 4 150 51 -26 23 -300 463 -300 483 0 21 176 175 226
198 91 41 74 48 -121 48 -127 0 -175 -3 -175 -12 0 -6 19 -18 43 -25 50 -17
73 -51 63 -93 -8 -32 -146 -179 -188 -201 -61 -32 -58 -50 -58 361 0 294 -3
375 -12 374 -7 -1 -33 -5 -58 -10z m-305 -1045 c-20 -31 -81 -49 -117 -35 -45
17 -61 52 -56 125 5 78 30 115 120 178 l63 44 3 -144 c2 -116 0 -149 -13 -168z"/>
</g>
</svg>
